<svg id="Layer_1" data-name="Layer 1" xmlns="http://www.w3.org/2000/svg" viewBox="0 0 364.7 364.7"><defs><style>.cls-1{stroke:#000;stroke-miterlimit:10;stroke-width:0.1px;opacity:0;}.cls-2{fill:#f90;opacity:0.5;}.cls-3,.cls-4,.cls-5{fill:#36f;}.cls-3{opacity:0.7;}.cls-4{opacity:0.4;}.cls-6{fill:#ffe19f;isolation:isolate;}</style></defs><rect class="cls-1" x="0.05" y="0.05" width="364.6" height="364.6" rx="43.7"/><path d="M545,550.73a182.46,182.46,0,0,1-27,20.72,40,40,0,0,0-13.59-2.4c-12.09,0-21.34,5.4-33.86,13S442.28,599.4,421,599.4,383.92,589.62,371.4,582s-21.77-13-33.86-13a40,40,0,0,0-13.59,2.4,182.46,182.46,0,0,1-27-20.72c10.92-6.17,24.1-12,40.57-12,21.28,0,37.07,9.78,49.59,17.36s21.77,13,33.86,13,21.35-5.39,33.86-13,28.31-17.36,49.59-17.36C520.91,538.71,534.09,544.56,545,550.73Z" transform="translate(-234.03 -267.65)"/><path d="M570.45,521.51a183.05,183.05,0,0,1-20,24c-4.37-2.33-8.39-4.78-12.12-7-12.52-7.59-21.77-13-33.87-13s-21.34,5.39-33.86,13-28.3,17.36-49.59,17.36S383.92,546,371.4,538.43s-21.77-13-33.86-13-21.35,5.39-33.87,13c-3.73,2.26-7.75,4.71-12.12,7a183.05,183.05,0,0,1-20-24,149.39,149.39,0,0,0,16.42-9c12.51-7.59,28.3-17.37,49.59-17.37s37.07,9.78,49.59,17.37,21.77,13,33.86,13,21.35-5.4,33.86-13,28.31-17.37,49.59-17.37,37.08,9.78,49.59,17.37A149.39,149.39,0,0,0,570.45,521.51Z" transform="translate(-234.03 -267.65)"/><path class="cls-2" d="M500.79,362.06c-6.37.47-13.14-1.56-18.26-3.69-4.88-2-8-6.56-9.25-11.69A31.16,31.16,0,0,0,441,323.13c-.83-.06-1.62-.25-2.47-.25a35.67,35.67,0,0,0-35.66,35.66c0,16.69,8.35,24.09-.66,38.4-13.95,22.17-48.42,25.91-72.67,16.62-12.21-4.68-25.67,3.75-25.25,16.82,1.06,32.43,24.34,62.39,62.93,75,37.28,12.16,114,9.92,124.29-46.5,5.44-29.85-10.15-47.07-18.74-54.88-8.42-7.66-4.27-15.93,3.7-17.07,12.68-1.62,12.17-1.41,23-3.56,8.85-1.75,10.34-9.17,10.34-13.19A8.24,8.24,0,0,0,500.79,362.06Z" transform="translate(-234.03 -267.65)"/><path class="cls-3" d="M554,512.47c-12.51-7.59-28.3-17.37-49.59-17.37s-37.07,9.78-49.59,17.37-21.77,13-33.86,13-21.35-5.4-33.86-13-28.31-17.37-49.59-17.37-37.08,9.78-49.59,17.37a149.39,149.39,0,0,1-16.42,9,183.05,183.05,0,0,0,20,24c4.37-2.33,8.39-4.78,12.12-7,12.52-7.59,21.77-13,33.87-13s21.34,5.39,33.86,13,28.3,17.36,49.59,17.36,37.07-9.78,49.59-17.36,21.77-13,33.86-13,21.35,5.39,33.87,13c3.73,2.26,7.75,4.71,12.12,7a183.05,183.05,0,0,0,20-24A149.39,149.39,0,0,1,554,512.47Z" transform="translate(-234.03 -267.65)"/><path class="cls-4" d="M588.33,478.24h-.43c-11,0-19.67-4.47-30.59-11l-3.28-2c-12.09-7.34-27.25-16.72-47.48-17.33-.7,0-1.4,0-2.11,0q-3.21,0-6.25.29c-18.17,1.65-32.08,10.25-43.34,17.08-12.51,7.59-21.77,13-33.86,13s-21.35-5.39-33.86-13-28.31-17.37-49.59-17.37a68.52,68.52,0,0,0-16,1.88c-1.57.37-3.11.79-4.61,1.25-11.45,3.5-20.92,9.33-29,14.24-4.51,2.74-8.6,5.19-12.55,7.2-7,3.58-13.59,5.78-21.32,5.78a15.16,15.16,0,0,0-4.65.66A182.53,182.53,0,0,0,262.93,508c16.91-2.19,30-10.29,40.74-16.79A144.79,144.79,0,0,1,320.58,482a42,42,0,0,1,16.87-3.72h.7A42.07,42.07,0,0,1,354.49,482a142.53,142.53,0,0,1,16.91,9.26c6.25,3.8,13.33,8.13,21.49,11.52h0A72.28,72.28,0,0,0,421,508.59c21.29,0,37.07-9.78,49.59-17.37A142,142,0,0,1,487.51,482a44.81,44.81,0,0,1,10.4-3.17h0a38.49,38.49,0,0,1,6.52-.55,40.65,40.65,0,0,1,14.72,2.81c6.07,2.31,12.09,5.89,19.15,10.17,10.72,6.5,23.83,14.6,40.74,16.79l13.5-29.11A15.07,15.07,0,0,0,588.33,478.24Z" transform="translate(-234.03 -267.65)"/><path class="cls-5" d="M504.44,538.71c-21.28,0-37.07,9.78-49.59,17.36s-21.77,13-33.86,13-21.35-5.39-33.86-13-28.31-17.36-49.59-17.36c-16.47,0-29.65,5.85-40.57,12a182.46,182.46,0,0,0,27,20.72,40,40,0,0,1,13.59-2.4c12.09,0,21.34,5.4,33.86,13S399.7,599.4,421,599.4s37.07-9.78,49.59-17.36,21.77-13,33.86-13a40,40,0,0,1,13.59,2.4,182.46,182.46,0,0,0,27-20.72C534.09,544.56,520.91,538.71,504.44,538.71Z" transform="translate(-234.03 -267.65)"/><path class="cls-6" d="M523.77,370.15c0,4-1.49,11.44-10.34,13.19-10.86,2.15-10.35,1.94-23,3.55-8,1.15-12.12,9.42-3.7,17.08,7.48,6.8,20.28,20.75,19.85,44a66.51,66.51,0,0,1-1.11,10.92,57.1,57.1,0,0,1-7.52,19.94c-.66,1.09-1.37,2.14-2.12,3.17-24.23,33.66-83.34,33.6-114.65,23.39C365.23,500.16,351.92,492,341.7,482l-.95-.95c-.9-.91-1.76-1.83-2.6-2.76h0a77.92,77.92,0,0,1-16.56-28.48,71.2,71.2,0,0,1-3.36-19.39c-.42-13.07,13-21.5,25.25-16.82,24.25,9.29,58.72,5.55,72.67-16.62,9-14.32.66-21.71.66-38.4a35.67,35.67,0,0,1,35.66-35.66c.85,0,1.64.19,2.47.25a31.36,31.36,0,0,1,18.75,4.78,31,31,0,0,1,13.55,18.77,19.34,19.34,0,0,0,1.86,4.83,15,15,0,0,0,7.39,6.86c5.12,2.13,11.89,4.16,18.26,3.69a8.7,8.7,0,0,1,1.14,0A8.18,8.18,0,0,1,523.77,370.15Z" transform="translate(-234.03 -267.65)"/></svg>